<svg xmlns="http://www.w3.org/2000/svg" width="46" height="46" viewBox="0 0 46 46" fill="none">
<path d="M36.8706 13.7559L28.4104 5.29563C27.776 4.66122 26.9346 4.3125 26.0395 4.3125H17.2497C12.2299 4.3125 8.14551 8.39692 8.14551 13.4167V32.5833C8.14551 37.6031 12.2299 41.6875 17.2497 41.6875H28.7497C33.7694 41.6875 37.8538 37.6031 37.8538 32.5833V16.1267C37.8538 15.2316 37.505 14.3884 36.8706 13.7559ZM28.2705 9.21928L32.9452 13.894H31.6247C29.7751 13.894 28.2705 12.3894 28.2705 10.5398V9.21928ZM28.7497 38.8125H17.2497C13.815 38.8125 11.0205 36.018 11.0205 32.5833V13.4167C11.0205 9.982 13.815 7.1875 17.2497 7.1875H25.3955V10.5417C25.3955 13.9763 28.19 16.7708 31.6247 16.7708H34.9788V32.5833C34.9788 36.018 32.1843 38.8125 28.7497 38.8125Z" fill="#FD17A9"/>
</svg>