<svg width="48" height="48" viewBox="0 0 48 48" fill="none" xmlns="http://www.w3.org/2000/svg">
<path d="M16.9399 15.0616C16.3539 14.4756 16.3539 13.5255 16.9399 12.9395L22.9399 6.9395C23.5259 6.3535 24.476 6.3535 25.062 6.9395L31.062 12.9395C31.648 13.5255 31.648 14.4756 31.062 15.0616C30.77 15.3536 30.386 15.5015 30.002 15.5015C29.618 15.5015 29.234 15.3556 28.942 15.0616L25.502 11.6216V22.0015C25.502 22.8295 24.83 23.5015 24.002 23.5015C23.174 23.5015 22.502 22.8295 22.502 22.0015V11.6236L19.062 15.0635C18.474 15.6475 17.5259 15.6476 16.9399 15.0616ZM34 20.5015C33.172 20.5015 32.5 21.1735 32.5 22.0015C32.5 22.8295 33.172 23.5015 34 23.5015C37.584 23.5015 40.5 26.4175 40.5 30.0015V32.0015C40.5 35.5855 37.584 38.5015 34 38.5015H14C10.416 38.5015 7.5 35.5855 7.5 32.0015V30.0015C7.5 26.4175 10.416 23.5015 14 23.5015C14.828 23.5015 15.5 22.8295 15.5 22.0015C15.5 21.1735 14.828 20.5015 14 20.5015C8.762 20.5015 4.5 24.7635 4.5 30.0015V32.0015C4.5 37.2395 8.762 41.5015 14 41.5015H34C39.238 41.5015 43.5 37.2395 43.5 32.0015V30.0015C43.5 24.7635 39.238 20.5015 34 20.5015ZM36 30.0015C36 28.8975 35.104 28.0015 34 28.0015C32.896 28.0015 32 28.8975 32 30.0015C32 31.1055 32.896 32.0015 34 32.0015C35.104 32.0015 36 31.1055 36 30.0015Z" fill="url(#paint0_linear_1322_2981)"/>
<defs>
<linearGradient id="paint0_linear_1322_2981" x1="24" y1="6.5" x2="24" y2="41.5015" gradientUnits="userSpaceOnUse">
<stop stop-color="#1C1C57"/>
<stop offset="1" stop-color="#090935"/>
</linearGradient>
</defs>
</svg>
